# AST/ASF file generated using VICON BodyLanguage
# -----------------------------------------------
:version 1.10
:name VICON
:units
  mass 1.0
  length 0.45
  angle deg
:documentation
   .ast/.asf automatically generated from VICON data using
   VICON BodyBuilder and BodyLanguage model FoxedUp or BRILLIANT.MOD
:root
   order TX TY TZ RX RY RZ
   axis XYZ
   position 0 0 0  
   orientation 0 0 0 
:bonedata
  begin
     id 1 
     name lhipjoint
     direction 0.541323 -0.757556 0.364798 
     length 2.47576 
     axis 0 0 0  XYZ
  end
  begin
     id 2 
     name lfemur
     direction 0.34202 -0.939693 0  
     length 7.46493  
     axis 0 0 20  XYZ
    dof rx ry rz
    limits (-160.0 20.0)
           (-70.0 70.0)
           (-60.0 70.0)
  end
  begin
     id 3 
     name ltibia
     direction 0.34202 -0.939693 0   
     length 7.73805   
     axis 0 0 20   XYZ
    dof rx
    limits (-10.0 170.0)
  end
  begin
     id 4 
     name lfoot
     direction 0.107174 -0.294458 0.949636   
     length 2.25864   
     axis -90 7.62852e-016 20   XYZ
    dof rx rz
    limits (-45.0 90.0)
           (-70.0 20.0)
  end
  begin
     id 5 
     name ltoes
     direction 1.53606e-011 -4.21934e-011 1   
     length 1.12451   
     axis -90 7.62852e-016 20   XYZ
    dof rx
    limits (-90.0 20.0)
  end
  begin
     id 6 
     name rhipjoint
     direction -0.524745 -0.766967 0.36933   
     length 2.44538  
     axis 0 0 0  XYZ 
  end
  begin
     id 7 
     name rfemur
     direction -0.34202 -0.939693 0   
     length 7.61604   
     axis 0 0 -20   XYZ
    dof rx ry rz
    limits (-160.0 20.0)
           (-70.0 70.0)
           (-70.0 60.0)
  end
  begin
     id 8 
     name rtibia
     direction -0.34202 -0.939693 0   
     length 7.61056   
     axis 0 0 -20   XYZ
    dof rx
    limits (-10.0 170.0)
 end
 begin
     id 9 
     name rfoot
     direction -0.12616 -0.346623 0.929482   
     length 2.46372  
     axis -90 -7.62852e-016 -20   XYZ
    dof rx rz
    limits (-45.0 90.0)
           (-20.0 70.0)
  end
  begin
     id 10 
     name rtoes
     direction -1.53531e-011 -4.22004e-011 1   
     length 1.21611   
     axis -90 -7.62852e-016 -20   XYZ
    dof rx
    limits (-90.0 20.0)
  end
  begin
     id 11 
     name lowerback
     direction -0.000778023 0.997293 -0.0735223   
     length 2.06139   
     axis 0 0 0   XYZ
    dof rx ry rz
    limits (-20.0 45.0)
           (-30.0 30.0)
           (-30.0 30.0)
  end
  begin
     id 12 
     name upperback
     direction 0.0222598 0.999722 -0.0078355   
     length 2.06383   
     axis 0 0 0   XYZ
    dof rx ry rz
    limits (-20.0 45.0)
           (-30.0 30.0)
           (-30.0 30.0)
  end
  begin
     id 13 
     name thorax
     direction 0.0219654 0.999405 0.0265994   
     length 2.07163   
     axis 0 0 0   XYZ
    dof rx ry rz
    limits (-20.0 45.0)
           (-30.0 30.0)
           (-30.0 30.0)
  end
  begin
     id 14 
     name lowerneck
     direction 0.0213282 0.988147 0.15202   
     length 1.75969   
     axis 0 0 0   XYZ
    dof rx ry rz
    limits (-20.0 45.0)
           (-30.0 30.0)
           (-30.0 30.0)
  end
  begin
     id 15 
     name upperneck
     direction -0.0546456 0.982624 -0.177379   
     length 1.79244   
     axis 0 0 0   XYZ
    dof rx ry rz
    limits (-20.0 45.0)
           (-30.0 30.0)
           (-30.0 30.0)
  end
  begin
     id 16
     name head
     direction -0.0199987 0.996855 -0.076686  
     length 1.80555  
     axis 0 0 0   XYZ
    dof rx ry rz
    limits (-20.0 45.0)
           (-30.0 30.0)
           (-30.0 30.0)
  end
  begin
     id 17 
     name lclavicle
     direction 0.929565 0.363219 -0.063096  
     length 3.55722  
     axis 0 0 0   XYZ
    dof ry rz
    limits (-20.0 10.0)
           (0.0 20.0)
  end
  begin
     id 18 
     name lhumerus
     direction 1 -4.48993e-011 -2.36203e-027   
     length 4.92785   
     axis 180 -30 -90   XYZ
    dof rx ry rz
    limits (-60.0 90.0)
           (-90.0 90.0)
           (-90.0 90.0)
  end
  begin
     id 19
     name lradius
     direction 1 -4.48947e-011 2.02997e-027   
     length 3.44052   
     axis 180 -30 -90   XYZ
    dof rx
    limits (-10.0 170.0)
  end
  begin
     id 20
     name lwrist
     direction 1 -4.48962e-011 1.45991e-027   
     length 1.72026   
     axis 1.49639e-024 90 90   XYZ
    dof ry
    limits (-180.0 0.0)
 end
  begin
     id 21 
     name lhand
     direction 1 -4.48984e-011 2.91906e-027   
     length 0.654326   
     axis -1.863e-015 90 90   XYZ
    dof rx rz
    limits (-90.0 90.0)
           (-45.0 45.0)
  end
  begin
     id 22 
     name lfingers
     direction 1 -4.48961e-011 5.83968e-027   
     length 0.527534   
     axis -3.72598e-015 90 90   XYZ
    dof rx
    limits (0.0 90.0)
  end
  begin
     id 23
     name lthumb
     direction 0.707107 -6.34963e-011 0.707107   
     length 0.757437   
     axis -90 45 -6.68868e-015   XYZ
    dof rx rz
    limits (-45.0 45.0)
           (-45.0 45.0)
  end
  begin
     id 24 
     name rclavicle
     direction -0.902944 0.422599 -0.0781198   
     length 3.54432  
     axis 0 0 0   XYZ 
    dof ry rz
    limits (-10.0 20.0)
           (-20.0 0.0)
  end
  begin
     id 25 
     name rhumerus
     direction -1 -4.48953e-011 -4.75835e-028  
     length 5.09181   
     axis 180 30 90   XYZ
    dof rx ry rz
    limits (-90.0 60.0)
           (-90.0 90.0)
           (-90.0 90.0)
  end
  begin
     id 26 
     name rradius
     direction -1 -4.48986e-011 -3.25889e-027   
     length 3.49865   
     axis 180 30 90   XYZ
    dof rx
    limits (-10.0 170.0)
  end
  begin
     id 27 
     name rwrist
     direction -1 -4.48963e-011 1.45989e-027   
     length 1.74933   
     axis 1.49639e-024 -90 -90   XYZ
    dof ry
    limits (-180.0 0.0)
  end
  begin
     id 28
     name rhand
     direction -1 -4.49003e-011 2.91844e-027   
     length 0.66641   
     axis -1.863e-015 -90 -90   XYZ
    dof rx rz
    limits (-90.0 90.0)
           (-45.0 45.0)
  end
  begin
     id 29
     name rfingers
     direction -1 -4.48973e-011 5.83886e-027   
     length 0.537277   
     axis -3.72598e-015 -90 -90   XYZ
    dof rx
    limits (0.0 90.0)
  end
  begin
     id 30
     name rthumb
     direction -0.707107 -6.34976e-011 0.707107   
     length 0.771425   
     axis -90 -45 6.68868e-015   XYZ
    dof rx rz
    limits (-45.0 45.0)
           (-45.0 45.0)
  end
:hierarchy
  begin
    root lhipjoint rhipjoint lowerback
    lhipjoint lfemur
    lfemur ltibia
    ltibia lfoot
    lfoot ltoes
    rhipjoint rfemur
    rfemur rtibia
    rtibia rfoot
    rfoot rtoes
    lowerback upperback
    upperback thorax
    thorax lowerneck lclavicle rclavicle
    lowerneck upperneck
    upperneck head
    lclavicle lhumerus
    lhumerus lradius
    lradius lwrist
    lwrist lhand lthumb
    lhand lfingers
    rclavicle rhumerus
    rhumerus rradius
    rradius rwrist
    rwrist rhand rthumb
    rhand rfingers
  end

#!OML:ASF H:\LiuWeirdWalks\Patient Classification 1\Patient 1\Session 1\male.ASF
:FULLY-SPECIFIED
:DEGREES
219
root 1.30673 17.8599 -30.6926 0.176572 1.54747 2.03803
lowerback 5.17627 -4.99563 -6.47585
upperback -0.727863 -6.94805 4.87978
thorax -2.27186 -3.37441 9.1964
lowerneck -15.1393 6.89467 9.16142
upperneck 21.8166 10.9733 -14.401
head 10.8895 4.23975 -5.15183
rclavicle -7.15625e-014 4.77083e-014
rhumerus -37.1461 -3.39429 -71.2498
rradius 27.955
rwrist -6.29695
rhand -15.4858 -4.10193
rfingers 7.12502
rthumb 10.6961 -33.8097
lclavicle -7.15625e-014 4.77083e-014
lhumerus -35.6741 22.7159 78.2325
lradius 39.0522
lwrist 15.0441
lhand -13.0873 0.133583
lfingers 7.12502
lthumb 13.0091 29.708
rfemur -30.0169 -2.21969 13.5287
rtibia 44.7018
rfoot -19.7196 -19.9558
rtoes -12.4905
lfemur 0.406752 3.03121 -28.8154
ltibia 17.8381
lfoot -10.2902 14.9079
ltoes -5.52795
220
root 1.30953 17.8619 -30.6711 0.170657 1.49577 2.04506
lowerback 5.1533 -4.99598 -6.47923
upperback -0.711968 -6.94784 4.87273
thorax -2.24285 -3.37632 9.18688
lowerneck -15.2143 6.86434 9.1038
upperneck 21.8665 10.934 -14.3555
head 10.9104 4.21693 -5.13144
rclavicle -2.94698e-014 2.06736e-014
rhumerus -37.1216 -3.46596 -71.2418
rradius 28.0101
rwrist -6.32891
rhand -15.4712 -4.11616
rfingers 7.12502
rthumb 10.7102 -33.8232
lclavicle -2.94698e-014 2.06736e-014
lhumerus -35.6187 22.6969 78.2326
lradius 39.077
lwrist 15.0975
lhand -13.0972 0.133266
lfingers 7.12502
lthumb 12.9995 29.7083
rfemur -30.121 -2.12233 13.5602
rtibia 43.9493
rfoot -19.7056 -19.9468
rtoes -12.6895
lfemur 0.586076 3.08868 -28.8289
ltibia 17.6342
lfoot -10.1955 14.92
ltoes -5.64787
221
root 1.31238 17.8638 -30.6492 0.169275 1.45021 2.06276
lowerback 5.14284 -5.00237 -6.49564
upperback -0.710512 -6.95712 4.86799
thorax -2.23226 -3.38141 9.19001
lowerneck -15.211 6.83895 9.06598
upperneck 21.8202 10.8962 -14.3387
head 10.8839 4.1996 -5.1233
rclavicle 1.02772e-013 -1.59028e-015
rhumerus -37.1166 -3.49855 -71.2412
rradius 28.0845
rwrist -6.4009
rhand -15.4754 -4.16966
rfingers 7.12502
rthumb 10.7062 -33.8769
lclavicle 1.02772e-013 -1.59028e-015
lhumerus -35.5873 22.6928 78.227
lradius 39.0946
lwrist 15.1428
lhand -13.1108 0.167443
lfingers 7.12502
lthumb 12.9864 29.7433
rfemur -30.2205 -2.04255 13.581
rtibia 43.1853
rfoot -19.6876 -19.9177
rtoes -12.8428
lfemur 0.761237 3.15213 -28.855
ltibia 17.4309
lfoot -10.0939 14.9257
ltoes -5.78686
222
root 1.31547 17.8656 -30.6269 0.167558 1.40627 2.09173
lowerback 5.13146 -5.01029 -6.52114
upperback -0.71 -6.96906 4.86128
thorax -2.22078 -3.38774 9.19618
lowerneck -15.1605 6.81327 9.03997
upperneck 21.7037 10.8532 -14.3401
head 10.8235 4.18302 -5.12342
rclavicle -6.30644e-014 6.99722e-014
rhumerus -37.1249 -3.4999 -71.2518
rradius 28.1835
rwrist -6.50454
rhand -15.4947 -4.23902
rfingers 7.12502
rthumb 10.6876 -33.9472
lclavicle -6.30644e-014 6.99722e-014
lhumerus -35.5622 22.6913 78.2247
lradius 39.1089
lwrist 15.1913
lhand -13.1169 0.154106
lfingers 7.12502
lthumb 12.9805 29.7303
rfemur -30.3109 -1.96797 13.5872
rtibia 42.4098
rfoot -19.6742 -19.8841
rtoes -12.9803
lfemur 0.938014 3.18409 -28.9006
ltibia 17.2314
lfoot -9.9844 14.961
ltoes -5.93056
223
root 1.31846 17.8675 -30.6046 0.162925 1.37081 2.12531
lowerback 5.12762 -5.03417 -6.55021
upperback -0.718007 -7.00286 4.86168
thorax -2.21669 -3.40438 9.21403
lowerneck -15.0491 6.80786 9.03623
upperneck 21.5424 10.8417 -14.3802
head 10.7435 4.18248 -5.13655
rclavicle -3.4191e-014 4.29375e-014
rhumerus -37.1394 -3.44429 -71.2707
rradius 28.2947
rwrist -6.62402
rhand -15.5312 -4.32132
rfingers 7.12502
rthumb 10.6524 -34.0313
lclavicle -3.4191e-014 4.29375e-014
lhumerus -35.561 22.7268 78.2127
lradius 39.1124
lwrist 15.2293
lhand -13.1467 0.163336
lfingers 7.12502
lthumb 12.9517 29.7414
rfemur -30.3871 -1.90542 13.5895
rtibia 41.6211
rfoot -19.6391 -19.8522
rtoes -13.0222
lfemur 1.11532 3.18851 -28.9561
ltibia 17.0406
lfoot -9.86695 15.0162
ltoes -6.07037
224
root 1.32116 17.8698 -30.5824 0.158396 1.33682 2.14512
lowerback 5.11883 -5.05524 -6.56146
upperback -0.721327 -7.03141 4.86427
thorax -2.20777 -3.41901 9.22303
lowerneck -14.9569 6.80332 9.02994
upperneck 21.4141 10.8333 -14.413
head 10.6793 4.18223 -5.14667
rclavicle 3.47873e-015 -1.11319e-014
rhumerus -37.1592 -3.39265 -71.2916
rradius 28.4159
rwrist -6.74914
rhand -15.5978 -4.40528
rfingers 7.12502
rthumb 10.5882 -34.1185
lclavicle 3.47873e-015 -1.11319e-014
lhumerus -35.5462 22.7532 78.2099
lradius 39.1105
lwrist 15.2603
lhand -13.1748 0.230823
lfingers 7.12502
lthumb 12.9247 29.8106
rfemur -30.4523 -1.83543 13.6071
rtibia 40.8169
rfoot -19.5402 -19.8203
rtoes -13.0116
lfemur 1.28669 3.16823 -28.9994
ltibia 16.861
lfoot -9.73874 15.0916
ltoes -6.21788
225
root 1.32341 17.8724 -30.5604 0.156944 1.30769 2.1526
lowerback 5.10783 -5.07724 -6.55621
upperback -0.727847 -7.05999 4.86878
thorax -2.20266 -3.43353 9.22467
lowerneck -14.8676 6.80334 9.04472
upperneck 21.32 10.8345 -14.4605
head 10.6319 4.18544 -5.16552
rclavicle 5.74985e-014 -5.40694e-014
rhumerus -37.1975 -3.32251 -71.3204
rradius 28.5502
rwrist -6.85419
rhand -15.6636 -4.45819
rfingers 7.12502
rthumb 10.5247 -34.1747
lclavicle 5.74985e-014 -5.40694e-014
lhumerus -35.5384 22.7791 78.2053
lradius 39.1063
lwrist 15.271
lhand -13.1896 0.264868
lfingers 7.12502
lthumb 12.9104 29.8455
rfemur -30.5093 -1.76687 13.6416
rtibia 40.0009
rfoot -19.4724 -19.7756
rtoes -12.8302
lfemur 1.45191 3.13576 -29.0283
ltibia 16.6869
lfoot -9.60901 15.1687
ltoes -6.37081
